<mxfile host="app.diagrams.net" agent="Mozilla/5.0 (X11; Linux x86_64) AppleWebKit/537.36 (KHTML, like Gecko) Chrome/124.0.0.0 Safari/537.36" version="24.8.2">
  <diagram name="Страница — 1" id="DoECdsH3Qvlqnn9PI9zk">
    <mxGraphModel dx="1364" dy="799" grid="1" gridSize="10" guides="1" tooltips="1" connect="1" arrows="1" fold="1" page="1" pageScale="1" pageWidth="827" pageHeight="1169" math="0" shadow="0">
      <root>
        <mxCell id="0" />
        <mxCell id="1" parent="0" />
        <mxCell id="FqTw6CZgGv0Y5Ly1HXcj-2" style="edgeStyle=orthogonalEdgeStyle;rounded=0;orthogonalLoop=1;jettySize=auto;html=1;" edge="1" parent="1" source="FqTw6CZgGv0Y5Ly1HXcj-1" target="FqTw6CZgGv0Y5Ly1HXcj-3">
          <mxGeometry relative="1" as="geometry">
            <mxPoint x="365" y="380" as="targetPoint" />
          </mxGeometry>
        </mxCell>
        <mxCell id="FqTw6CZgGv0Y5Ly1HXcj-1" value="FMMON" style="whiteSpace=wrap;html=1;aspect=fixed;" vertex="1" parent="1">
          <mxGeometry x="290" y="70" width="150" height="150" as="geometry" />
        </mxCell>
        <mxCell id="FqTw6CZgGv0Y5Ly1HXcj-4" style="edgeStyle=orthogonalEdgeStyle;rounded=0;orthogonalLoop=1;jettySize=auto;html=1;" edge="1" parent="1" source="FqTw6CZgGv0Y5Ly1HXcj-3" target="FqTw6CZgGv0Y5Ly1HXcj-5">
          <mxGeometry relative="1" as="geometry">
            <mxPoint x="170" y="490" as="targetPoint" />
          </mxGeometry>
        </mxCell>
        <mxCell id="FqTw6CZgGv0Y5Ly1HXcj-3" value="ТУК" style="rounded=0;whiteSpace=wrap;html=1;" vertex="1" parent="1">
          <mxGeometry x="220" y="340" width="120" height="60" as="geometry" />
        </mxCell>
        <mxCell id="FqTw6CZgGv0Y5Ly1HXcj-5" value="УХО" style="rounded=1;whiteSpace=wrap;html=1;" vertex="1" parent="1">
          <mxGeometry x="80" y="470" width="120" height="60" as="geometry" />
        </mxCell>
      </root>
    </mxGraphModel>
  </diagram>
</mxfile>
